<mxfile host="app.diagrams.net" modified="2023-10-05T11:37:26.095Z" agent="Mozilla/5.0 (Windows NT 10.0; Win64; x64) AppleWebKit/537.36 (KHTML, like Gecko) Chrome/117.0.0.0 Safari/537.36" etag="1KMx7-9a-dHmUIRn7VKl" version="22.0.2" type="device">
  <diagram name="Página-1" id="_lsxfPt71TuAtW6j0jMD">
    <mxGraphModel dx="3999" dy="2213" grid="1" gridSize="10" guides="1" tooltips="1" connect="1" arrows="1" fold="1" page="1" pageScale="1" pageWidth="827" pageHeight="1169" math="0" shadow="0">
      <root>
        <mxCell id="0" />
        <mxCell id="1" parent="0" />
        <mxCell id="HjSARC_eoHZar8w_zuDz-1" value="Sistema Web&#xa;&#xa;Perfis de usuário:&#xa;&#xa;1. Administrador: Para o colaborador da área administrativa da clínica;&#xa;2. Médico: Colaboradores que atuam na área da saúde;&#xa;3. Paciente: Clientes da clínica;&#xa;&#xa;Funcionalidades:&#xa;&#xa;1. O administrador poderá cadastrar qualquer tipo de usuário (administrador, paciente ou&#xa;médico);&#xa;2. O administrador poderá agendar uma consulta, onde será informado o paciente, data do&#xa;agendamento e qual médico irá atender a consulta (o médico possuirá sua determinada&#xa;especialidade);&#xa;3. O administrador poderá cancelar o agendamento;&#xa;4. O administrador deverá informar os dados da clínica (como endereço, horário de&#xa;funcionamento, CNPJ, nome fantasia e razão social);&#xa;5. O médico poderá ver os agendamentos (consultas) associados a ele;&#xa;6. O médico poderá incluir a descrição da consulta que estará vinculada ao paciente&#xa;(prontuário);&#xa;7. O paciente poderá visualizar suas próprias consultas;" style="text;whiteSpace=wrap;" parent="1" vertex="1">
          <mxGeometry x="-890" y="-70" width="520" height="310" as="geometry" />
        </mxCell>
        <mxCell id="1QTL2UDU8CIlQ4XkbXj3-7" value="" style="edgeStyle=orthogonalEdgeStyle;rounded=0;orthogonalLoop=1;jettySize=auto;html=1;endArrow=none;endFill=0;" parent="1" source="HjSARC_eoHZar8w_zuDz-2" target="1QTL2UDU8CIlQ4XkbXj3-6" edge="1">
          <mxGeometry relative="1" as="geometry" />
        </mxCell>
        <mxCell id="HjSARC_eoHZar8w_zuDz-2" value="Usuario" style="rounded=0;whiteSpace=wrap;html=1;fillColor=#e6d0de;gradientColor=#d5739d;strokeColor=#996185;" parent="1" vertex="1">
          <mxGeometry x="-220" y="580" width="120" height="60" as="geometry" />
        </mxCell>
        <mxCell id="1QTL2UDU8CIlQ4XkbXj3-73" value="" style="edgeStyle=orthogonalEdgeStyle;rounded=0;orthogonalLoop=1;jettySize=auto;html=1;endArrow=none;endFill=0;" parent="1" source="HjSARC_eoHZar8w_zuDz-4" target="1QTL2UDU8CIlQ4XkbXj3-21" edge="1">
          <mxGeometry relative="1" as="geometry" />
        </mxCell>
        <mxCell id="1QTL2UDU8CIlQ4XkbXj3-78" value="" style="edgeStyle=orthogonalEdgeStyle;rounded=0;orthogonalLoop=1;jettySize=auto;html=1;endArrow=none;endFill=0;" parent="1" source="HjSARC_eoHZar8w_zuDz-4" target="1QTL2UDU8CIlQ4XkbXj3-15" edge="1">
          <mxGeometry relative="1" as="geometry" />
        </mxCell>
        <mxCell id="HjSARC_eoHZar8w_zuDz-4" value="Medico" style="rounded=0;whiteSpace=wrap;html=1;fillColor=#e6d0de;gradientColor=#d5739d;strokeColor=#996185;" parent="1" vertex="1">
          <mxGeometry x="100" y="790" width="120" height="60" as="geometry" />
        </mxCell>
        <mxCell id="HjSARC_eoHZar8w_zuDz-5" value="TipoDeUsuario" style="rounded=0;whiteSpace=wrap;html=1;fillColor=#e6d0de;strokeColor=#996185;gradientColor=#d5739d;" parent="1" vertex="1">
          <mxGeometry x="-220" y="340" width="120" height="60" as="geometry" />
        </mxCell>
        <mxCell id="HjSARC_eoHZar8w_zuDz-9" value="Consulta" style="rounded=0;whiteSpace=wrap;html=1;fillColor=#e6d0de;gradientColor=#d5739d;strokeColor=#996185;" parent="1" vertex="1">
          <mxGeometry x="100" y="1068" width="120" height="60" as="geometry" />
        </mxCell>
        <mxCell id="HjSARC_eoHZar8w_zuDz-10" value="Especialidade" style="rounded=0;whiteSpace=wrap;html=1;fillColor=#e6d0de;gradientColor=#d5739d;strokeColor=#996185;" parent="1" vertex="1">
          <mxGeometry x="430" y="790" width="120" height="60" as="geometry" />
        </mxCell>
        <mxCell id="oid0VO_j-IJUv03uD-GG-19" style="edgeStyle=orthogonalEdgeStyle;rounded=0;orthogonalLoop=1;jettySize=auto;html=1;entryX=0.575;entryY=0.996;entryDx=0;entryDy=0;entryPerimeter=0;endArrow=none;endFill=0;" parent="1" source="HjSARC_eoHZar8w_zuDz-11" target="HjSARC_eoHZar8w_zuDz-9" edge="1">
          <mxGeometry relative="1" as="geometry" />
        </mxCell>
        <mxCell id="HjSARC_eoHZar8w_zuDz-11" value="Comentario" style="rounded=0;whiteSpace=wrap;html=1;fillColor=#e6d0de;gradientColor=#d5739d;strokeColor=#996185;" parent="1" vertex="1">
          <mxGeometry x="-370" y="1124" width="120" height="60" as="geometry" />
        </mxCell>
        <mxCell id="1QTL2UDU8CIlQ4XkbXj3-82" value="" style="edgeStyle=orthogonalEdgeStyle;rounded=0;orthogonalLoop=1;jettySize=auto;html=1;endArrow=none;endFill=0;" parent="1" source="1QTL2UDU8CIlQ4XkbXj3-4" target="1QTL2UDU8CIlQ4XkbXj3-29" edge="1">
          <mxGeometry relative="1" as="geometry" />
        </mxCell>
        <mxCell id="1QTL2UDU8CIlQ4XkbXj3-90" style="edgeStyle=orthogonalEdgeStyle;rounded=0;orthogonalLoop=1;jettySize=auto;html=1;entryX=0;entryY=0.75;entryDx=0;entryDy=0;endArrow=none;endFill=0;" parent="1" source="1QTL2UDU8CIlQ4XkbXj3-4" target="HjSARC_eoHZar8w_zuDz-9" edge="1">
          <mxGeometry relative="1" as="geometry" />
        </mxCell>
        <mxCell id="1QTL2UDU8CIlQ4XkbXj3-4" value="Paciente" style="rounded=0;whiteSpace=wrap;html=1;glass=1;fillColor=#e6d0de;gradientColor=#d5739d;strokeColor=#996185;" parent="1" vertex="1">
          <mxGeometry x="-370" y="850" width="120" height="60" as="geometry" />
        </mxCell>
        <mxCell id="1QTL2UDU8CIlQ4XkbXj3-12" value="" style="edgeStyle=orthogonalEdgeStyle;rounded=0;orthogonalLoop=1;jettySize=auto;html=1;endArrow=none;endFill=0;" parent="1" source="1QTL2UDU8CIlQ4XkbXj3-6" target="HjSARC_eoHZar8w_zuDz-5" edge="1">
          <mxGeometry relative="1" as="geometry" />
        </mxCell>
        <mxCell id="1QTL2UDU8CIlQ4XkbXj3-6" value="Possui" style="rhombus;whiteSpace=wrap;html=1;fillColor=#f8cecc;strokeColor=#b85450;gradientColor=#ea6b66;" parent="1" vertex="1">
          <mxGeometry x="-200" y="460" width="80" height="80" as="geometry" />
        </mxCell>
        <mxCell id="1QTL2UDU8CIlQ4XkbXj3-15" value="Possui" style="rhombus;whiteSpace=wrap;html=1;fillColor=#f8cecc;gradientColor=#ea6b66;strokeColor=#b85450;" parent="1" vertex="1">
          <mxGeometry x="120" y="668" width="80" height="80" as="geometry" />
        </mxCell>
        <mxCell id="1QTL2UDU8CIlQ4XkbXj3-92" value="" style="edgeStyle=orthogonalEdgeStyle;rounded=0;orthogonalLoop=1;jettySize=auto;html=1;endArrow=none;endFill=0;" parent="1" source="1QTL2UDU8CIlQ4XkbXj3-19" target="HjSARC_eoHZar8w_zuDz-4" edge="1">
          <mxGeometry relative="1" as="geometry" />
        </mxCell>
        <mxCell id="1QTL2UDU8CIlQ4XkbXj3-98" value="" style="edgeStyle=orthogonalEdgeStyle;rounded=0;orthogonalLoop=1;jettySize=auto;html=1;endArrow=none;endFill=0;" parent="1" source="1QTL2UDU8CIlQ4XkbXj3-19" target="HjSARC_eoHZar8w_zuDz-10" edge="1">
          <mxGeometry relative="1" as="geometry" />
        </mxCell>
        <mxCell id="1QTL2UDU8CIlQ4XkbXj3-19" value="Possui" style="rhombus;whiteSpace=wrap;html=1;fillColor=#f8cecc;gradientColor=#ea6b66;strokeColor=#b85450;" parent="1" vertex="1">
          <mxGeometry x="290" y="780" width="80" height="80" as="geometry" />
        </mxCell>
        <mxCell id="1QTL2UDU8CIlQ4XkbXj3-93" value="" style="edgeStyle=orthogonalEdgeStyle;rounded=0;orthogonalLoop=1;jettySize=auto;html=1;endArrow=none;endFill=0;" parent="1" source="1QTL2UDU8CIlQ4XkbXj3-20" target="HjSARC_eoHZar8w_zuDz-4" edge="1">
          <mxGeometry relative="1" as="geometry" />
        </mxCell>
        <mxCell id="1QTL2UDU8CIlQ4XkbXj3-94" value="" style="edgeStyle=orthogonalEdgeStyle;rounded=0;orthogonalLoop=1;jettySize=auto;html=1;endArrow=none;endFill=0;" parent="1" source="1QTL2UDU8CIlQ4XkbXj3-20" target="HjSARC_eoHZar8w_zuDz-9" edge="1">
          <mxGeometry relative="1" as="geometry" />
        </mxCell>
        <mxCell id="1QTL2UDU8CIlQ4XkbXj3-20" value="Possui" style="rhombus;whiteSpace=wrap;html=1;fillColor=#f8cecc;gradientColor=#ea6b66;strokeColor=#b85450;" parent="1" vertex="1">
          <mxGeometry x="120" y="910" width="80" height="80" as="geometry" />
        </mxCell>
        <mxCell id="1QTL2UDU8CIlQ4XkbXj3-72" value="" style="edgeStyle=orthogonalEdgeStyle;rounded=0;orthogonalLoop=1;jettySize=auto;html=1;endArrow=none;endFill=0;" parent="1" source="1QTL2UDU8CIlQ4XkbXj3-21" target="HjSARC_eoHZar8w_zuDz-2" edge="1">
          <mxGeometry relative="1" as="geometry" />
        </mxCell>
        <mxCell id="1QTL2UDU8CIlQ4XkbXj3-21" value="Possui" style="rhombus;whiteSpace=wrap;html=1;fillColor=#f8cecc;gradientColor=#ea6b66;strokeColor=#b85450;" parent="1" vertex="1">
          <mxGeometry x="-200" y="780" width="80" height="80" as="geometry" />
        </mxCell>
        <mxCell id="1QTL2UDU8CIlQ4XkbXj3-81" value="" style="edgeStyle=orthogonalEdgeStyle;rounded=0;orthogonalLoop=1;jettySize=auto;html=1;endArrow=none;endFill=0;" parent="1" source="1QTL2UDU8CIlQ4XkbXj3-29" target="HjSARC_eoHZar8w_zuDz-2" edge="1">
          <mxGeometry relative="1" as="geometry" />
        </mxCell>
        <mxCell id="1QTL2UDU8CIlQ4XkbXj3-29" value="Possui" style="rhombus;whiteSpace=wrap;html=1;fillColor=#f8cecc;gradientColor=#ea6b66;strokeColor=#b85450;" parent="1" vertex="1">
          <mxGeometry x="-350" y="570" width="80" height="80" as="geometry" />
        </mxCell>
        <mxCell id="1QTL2UDU8CIlQ4XkbXj3-40" value="Conceitual" style="rounded=0;whiteSpace=wrap;html=1;fillColor=#dae8fc;strokeColor=#6c8ebf;" parent="1" vertex="1">
          <mxGeometry x="20" y="320" width="120" height="60" as="geometry" />
        </mxCell>
        <mxCell id="1QTL2UDU8CIlQ4XkbXj3-70" style="edgeStyle=orthogonalEdgeStyle;rounded=0;orthogonalLoop=1;jettySize=auto;html=1;exitX=0.5;exitY=1;exitDx=0;exitDy=0;" parent="1" source="HjSARC_eoHZar8w_zuDz-11" target="HjSARC_eoHZar8w_zuDz-11" edge="1">
          <mxGeometry relative="1" as="geometry" />
        </mxCell>
        <mxCell id="1QTL2UDU8CIlQ4XkbXj3-77" value="" style="edgeStyle=orthogonalEdgeStyle;rounded=0;orthogonalLoop=1;jettySize=auto;html=1;endArrow=none;endFill=0;" parent="1" source="1QTL2UDU8CIlQ4XkbXj3-2" target="1QTL2UDU8CIlQ4XkbXj3-15" edge="1">
          <mxGeometry relative="1" as="geometry" />
        </mxCell>
        <mxCell id="1QTL2UDU8CIlQ4XkbXj3-2" value="Clinica" style="rounded=0;whiteSpace=wrap;html=1;fillColor=#e6d0de;gradientColor=#d5739d;strokeColor=#996185;" parent="1" vertex="1">
          <mxGeometry x="100" y="540" width="120" height="60" as="geometry" />
        </mxCell>
        <mxCell id="1QTL2UDU8CIlQ4XkbXj3-85" style="edgeStyle=orthogonalEdgeStyle;rounded=0;orthogonalLoop=1;jettySize=auto;html=1;exitX=0.5;exitY=1;exitDx=0;exitDy=0;" parent="1" edge="1">
          <mxGeometry relative="1" as="geometry">
            <mxPoint x="480" y="865" as="sourcePoint" />
            <mxPoint x="480" y="865" as="targetPoint" />
          </mxGeometry>
        </mxCell>
        <mxCell id="1QTL2UDU8CIlQ4XkbXj3-87" value="" style="edgeStyle=orthogonalEdgeStyle;rounded=0;orthogonalLoop=1;jettySize=auto;html=1;endArrow=none;endFill=0;" parent="1" source="1QTL2UDU8CIlQ4XkbXj3-86" target="1QTL2UDU8CIlQ4XkbXj3-4" edge="1">
          <mxGeometry relative="1" as="geometry" />
        </mxCell>
        <mxCell id="1QTL2UDU8CIlQ4XkbXj3-88" value="" style="edgeStyle=orthogonalEdgeStyle;rounded=0;orthogonalLoop=1;jettySize=auto;html=1;endArrow=none;endFill=0;" parent="1" source="1QTL2UDU8CIlQ4XkbXj3-86" target="HjSARC_eoHZar8w_zuDz-11" edge="1">
          <mxGeometry relative="1" as="geometry" />
        </mxCell>
        <mxCell id="1QTL2UDU8CIlQ4XkbXj3-86" value="Possui" style="rhombus;whiteSpace=wrap;html=1;fillColor=#f8cecc;gradientColor=#ea6b66;strokeColor=#b85450;" parent="1" vertex="1">
          <mxGeometry x="-350" y="970" width="80" height="80" as="geometry" />
        </mxCell>
        <mxCell id="1QTL2UDU8CIlQ4XkbXj3-99" value="1" style="text;html=1;align=center;verticalAlign=middle;resizable=0;points=[];autosize=1;strokeColor=#82b366;fillColor=#d5e8d4;gradientColor=#97d077;" parent="1" vertex="1">
          <mxGeometry x="-140" y="410" width="30" height="30" as="geometry" />
        </mxCell>
        <mxCell id="1QTL2UDU8CIlQ4XkbXj3-100" value="N" style="text;html=1;align=center;verticalAlign=middle;resizable=0;points=[];autosize=1;strokeColor=#6c8ebf;fillColor=#dae8fc;gradientColor=#7ea6e0;" parent="1" vertex="1">
          <mxGeometry x="-140" y="540" width="30" height="30" as="geometry" />
        </mxCell>
        <mxCell id="1QTL2UDU8CIlQ4XkbXj3-104" value="1" style="text;html=1;align=center;verticalAlign=middle;resizable=0;points=[];autosize=1;strokeColor=#82b366;fillColor=#d5e8d4;gradientColor=#97d077;" parent="1" vertex="1">
          <mxGeometry x="170" y="608" width="30" height="30" as="geometry" />
        </mxCell>
        <mxCell id="1QTL2UDU8CIlQ4XkbXj3-105" value="N" style="text;html=1;align=center;verticalAlign=middle;resizable=0;points=[];autosize=1;fillColor=#dae8fc;gradientColor=#7ea6e0;strokeColor=#6c8ebf;" parent="1" vertex="1">
          <mxGeometry x="175" y="758" width="30" height="30" as="geometry" />
        </mxCell>
        <mxCell id="1QTL2UDU8CIlQ4XkbXj3-106" value="N" style="text;html=1;align=center;verticalAlign=middle;resizable=0;points=[];autosize=1;strokeColor=#6c8ebf;fillColor=#dae8fc;gradientColor=#7ea6e0;" parent="1" vertex="1">
          <mxGeometry x="230" y="780" width="30" height="30" as="geometry" />
        </mxCell>
        <mxCell id="1QTL2UDU8CIlQ4XkbXj3-107" value="1" style="text;html=1;align=center;verticalAlign=middle;resizable=0;points=[];autosize=1;strokeColor=#82b366;fillColor=#d5e8d4;gradientColor=#97d077;" parent="1" vertex="1">
          <mxGeometry x="390" y="780" width="30" height="30" as="geometry" />
        </mxCell>
        <mxCell id="1QTL2UDU8CIlQ4XkbXj3-112" value="1" style="text;html=1;align=center;verticalAlign=middle;resizable=0;points=[];autosize=1;strokeColor=#82b366;fillColor=#d5e8d4;gradientColor=#97d077;" parent="1" vertex="1">
          <mxGeometry x="-290" y="920" width="30" height="30" as="geometry" />
        </mxCell>
        <mxCell id="1QTL2UDU8CIlQ4XkbXj3-113" value="N" style="text;html=1;align=center;verticalAlign=middle;resizable=0;points=[];autosize=1;strokeColor=#6c8ebf;fillColor=#dae8fc;gradientColor=#7ea6e0;" parent="1" vertex="1">
          <mxGeometry x="-300" y="1094" width="30" height="30" as="geometry" />
        </mxCell>
        <mxCell id="1QTL2UDU8CIlQ4XkbXj3-114" value="1" style="text;html=1;align=center;verticalAlign=middle;resizable=0;points=[];autosize=1;strokeColor=#82b366;fillColor=#d5e8d4;gradientColor=#97d077;" parent="1" vertex="1">
          <mxGeometry x="-260" y="570" width="30" height="30" as="geometry" />
        </mxCell>
        <mxCell id="1QTL2UDU8CIlQ4XkbXj3-116" value="1" style="text;html=1;align=center;verticalAlign=middle;resizable=0;points=[];autosize=1;strokeColor=#82b366;fillColor=#d5e8d4;gradientColor=#97d077;" parent="1" vertex="1">
          <mxGeometry x="-150" y="650" width="30" height="30" as="geometry" />
        </mxCell>
        <mxCell id="1QTL2UDU8CIlQ4XkbXj3-144" value="TipoDeUsuario" style="shape=table;startSize=30;container=1;collapsible=1;childLayout=tableLayout;fixedRows=1;rowLines=0;fontStyle=1;align=center;resizeLast=1;html=1;fillColor=#e6d0de;gradientColor=#d5739d;strokeColor=#996185;" parent="1" vertex="1">
          <mxGeometry x="647" y="510" width="180" height="90" as="geometry" />
        </mxCell>
        <mxCell id="1QTL2UDU8CIlQ4XkbXj3-145" value="" style="shape=tableRow;horizontal=0;startSize=0;swimlaneHead=0;swimlaneBody=0;fillColor=none;collapsible=0;dropTarget=0;points=[[0,0.5],[1,0.5]];portConstraint=eastwest;top=0;left=0;right=0;bottom=1;" parent="1QTL2UDU8CIlQ4XkbXj3-144" vertex="1">
          <mxGeometry y="30" width="180" height="30" as="geometry" />
        </mxCell>
        <mxCell id="1QTL2UDU8CIlQ4XkbXj3-146" value="PK" style="shape=partialRectangle;connectable=0;fillColor=none;top=0;left=0;bottom=0;right=0;fontStyle=1;overflow=hidden;whiteSpace=wrap;html=1;" parent="1QTL2UDU8CIlQ4XkbXj3-145" vertex="1">
          <mxGeometry width="30" height="30" as="geometry">
            <mxRectangle width="30" height="30" as="alternateBounds" />
          </mxGeometry>
        </mxCell>
        <mxCell id="1QTL2UDU8CIlQ4XkbXj3-147" value="IdTipoDeUsuario" style="shape=partialRectangle;connectable=0;fillColor=none;top=0;left=0;bottom=0;right=0;align=left;spacingLeft=6;fontStyle=5;overflow=hidden;whiteSpace=wrap;html=1;" parent="1QTL2UDU8CIlQ4XkbXj3-145" vertex="1">
          <mxGeometry x="30" width="150" height="30" as="geometry">
            <mxRectangle width="150" height="30" as="alternateBounds" />
          </mxGeometry>
        </mxCell>
        <mxCell id="1QTL2UDU8CIlQ4XkbXj3-148" value="" style="shape=tableRow;horizontal=0;startSize=0;swimlaneHead=0;swimlaneBody=0;fillColor=none;collapsible=0;dropTarget=0;points=[[0,0.5],[1,0.5]];portConstraint=eastwest;top=0;left=0;right=0;bottom=0;" parent="1QTL2UDU8CIlQ4XkbXj3-144" vertex="1">
          <mxGeometry y="60" width="180" height="30" as="geometry" />
        </mxCell>
        <mxCell id="1QTL2UDU8CIlQ4XkbXj3-149" value="" style="shape=partialRectangle;connectable=0;fillColor=none;top=0;left=0;bottom=0;right=0;editable=1;overflow=hidden;whiteSpace=wrap;html=1;" parent="1QTL2UDU8CIlQ4XkbXj3-148" vertex="1">
          <mxGeometry width="30" height="30" as="geometry">
            <mxRectangle width="30" height="30" as="alternateBounds" />
          </mxGeometry>
        </mxCell>
        <mxCell id="1QTL2UDU8CIlQ4XkbXj3-150" value="TituloTipoUsuario" style="shape=partialRectangle;connectable=0;fillColor=none;top=0;left=0;bottom=0;right=0;align=left;spacingLeft=6;overflow=hidden;whiteSpace=wrap;html=1;" parent="1QTL2UDU8CIlQ4XkbXj3-148" vertex="1">
          <mxGeometry x="30" width="150" height="30" as="geometry">
            <mxRectangle width="150" height="30" as="alternateBounds" />
          </mxGeometry>
        </mxCell>
        <mxCell id="1QTL2UDU8CIlQ4XkbXj3-167" value="Usuario" style="shape=table;startSize=30;container=1;collapsible=1;childLayout=tableLayout;fixedRows=1;rowLines=0;fontStyle=1;align=center;resizeLast=1;html=1;whiteSpace=wrap;fillColor=#e6d0de;gradientColor=#d5739d;strokeColor=#996185;" parent="1" vertex="1">
          <mxGeometry x="887" y="510" width="180" height="150" as="geometry" />
        </mxCell>
        <mxCell id="1QTL2UDU8CIlQ4XkbXj3-168" value="" style="shape=tableRow;horizontal=0;startSize=0;swimlaneHead=0;swimlaneBody=0;fillColor=none;collapsible=0;dropTarget=0;points=[[0,0.5],[1,0.5]];portConstraint=eastwest;top=0;left=0;right=0;bottom=0;html=1;" parent="1QTL2UDU8CIlQ4XkbXj3-167" vertex="1">
          <mxGeometry y="30" width="180" height="30" as="geometry" />
        </mxCell>
        <mxCell id="1QTL2UDU8CIlQ4XkbXj3-169" value="PK" style="shape=partialRectangle;connectable=0;fillColor=none;top=0;left=0;bottom=0;right=0;fontStyle=1;overflow=hidden;html=1;whiteSpace=wrap;" parent="1QTL2UDU8CIlQ4XkbXj3-168" vertex="1">
          <mxGeometry width="60" height="30" as="geometry">
            <mxRectangle width="60" height="30" as="alternateBounds" />
          </mxGeometry>
        </mxCell>
        <mxCell id="1QTL2UDU8CIlQ4XkbXj3-170" value="IdUsuario" style="shape=partialRectangle;connectable=0;fillColor=none;top=0;left=0;bottom=0;right=0;align=left;spacingLeft=6;fontStyle=5;overflow=hidden;html=1;whiteSpace=wrap;" parent="1QTL2UDU8CIlQ4XkbXj3-168" vertex="1">
          <mxGeometry x="60" width="120" height="30" as="geometry">
            <mxRectangle width="120" height="30" as="alternateBounds" />
          </mxGeometry>
        </mxCell>
        <mxCell id="1QTL2UDU8CIlQ4XkbXj3-171" value="" style="shape=tableRow;horizontal=0;startSize=0;swimlaneHead=0;swimlaneBody=0;fillColor=none;collapsible=0;dropTarget=0;points=[[0,0.5],[1,0.5]];portConstraint=eastwest;top=0;left=0;right=0;bottom=1;html=1;" parent="1QTL2UDU8CIlQ4XkbXj3-167" vertex="1">
          <mxGeometry y="60" width="180" height="30" as="geometry" />
        </mxCell>
        <mxCell id="1QTL2UDU8CIlQ4XkbXj3-172" value="FK" style="shape=partialRectangle;connectable=0;fillColor=none;top=0;left=0;bottom=0;right=0;fontStyle=1;overflow=hidden;html=1;whiteSpace=wrap;" parent="1QTL2UDU8CIlQ4XkbXj3-171" vertex="1">
          <mxGeometry width="60" height="30" as="geometry">
            <mxRectangle width="60" height="30" as="alternateBounds" />
          </mxGeometry>
        </mxCell>
        <mxCell id="1QTL2UDU8CIlQ4XkbXj3-173" value="IdTipoDeUsuario" style="shape=partialRectangle;connectable=0;fillColor=none;top=0;left=0;bottom=0;right=0;align=left;spacingLeft=6;fontStyle=5;overflow=hidden;html=1;whiteSpace=wrap;" parent="1QTL2UDU8CIlQ4XkbXj3-171" vertex="1">
          <mxGeometry x="60" width="120" height="30" as="geometry">
            <mxRectangle width="120" height="30" as="alternateBounds" />
          </mxGeometry>
        </mxCell>
        <mxCell id="1QTL2UDU8CIlQ4XkbXj3-177" value="" style="shape=tableRow;horizontal=0;startSize=0;swimlaneHead=0;swimlaneBody=0;fillColor=none;collapsible=0;dropTarget=0;points=[[0,0.5],[1,0.5]];portConstraint=eastwest;top=0;left=0;right=0;bottom=0;html=1;" parent="1QTL2UDU8CIlQ4XkbXj3-167" vertex="1">
          <mxGeometry y="90" width="180" height="30" as="geometry" />
        </mxCell>
        <mxCell id="1QTL2UDU8CIlQ4XkbXj3-178" value="" style="shape=partialRectangle;connectable=0;fillColor=none;top=0;left=0;bottom=0;right=0;editable=1;overflow=hidden;html=1;whiteSpace=wrap;" parent="1QTL2UDU8CIlQ4XkbXj3-177" vertex="1">
          <mxGeometry width="60" height="30" as="geometry">
            <mxRectangle width="60" height="30" as="alternateBounds" />
          </mxGeometry>
        </mxCell>
        <mxCell id="1QTL2UDU8CIlQ4XkbXj3-179" value="Email" style="shape=partialRectangle;connectable=0;fillColor=none;top=0;left=0;bottom=0;right=0;align=left;spacingLeft=6;overflow=hidden;html=1;whiteSpace=wrap;" parent="1QTL2UDU8CIlQ4XkbXj3-177" vertex="1">
          <mxGeometry x="60" width="120" height="30" as="geometry">
            <mxRectangle width="120" height="30" as="alternateBounds" />
          </mxGeometry>
        </mxCell>
        <mxCell id="1QTL2UDU8CIlQ4XkbXj3-180" style="shape=tableRow;horizontal=0;startSize=0;swimlaneHead=0;swimlaneBody=0;fillColor=none;collapsible=0;dropTarget=0;points=[[0,0.5],[1,0.5]];portConstraint=eastwest;top=0;left=0;right=0;bottom=0;html=1;" parent="1QTL2UDU8CIlQ4XkbXj3-167" vertex="1">
          <mxGeometry y="120" width="180" height="30" as="geometry" />
        </mxCell>
        <mxCell id="1QTL2UDU8CIlQ4XkbXj3-181" style="shape=partialRectangle;connectable=0;fillColor=none;top=0;left=0;bottom=0;right=0;editable=1;overflow=hidden;html=1;whiteSpace=wrap;" parent="1QTL2UDU8CIlQ4XkbXj3-180" vertex="1">
          <mxGeometry width="60" height="30" as="geometry">
            <mxRectangle width="60" height="30" as="alternateBounds" />
          </mxGeometry>
        </mxCell>
        <mxCell id="1QTL2UDU8CIlQ4XkbXj3-182" value="Senha" style="shape=partialRectangle;connectable=0;fillColor=none;top=0;left=0;bottom=0;right=0;align=left;spacingLeft=6;overflow=hidden;html=1;whiteSpace=wrap;" parent="1QTL2UDU8CIlQ4XkbXj3-180" vertex="1">
          <mxGeometry x="60" width="120" height="30" as="geometry">
            <mxRectangle width="120" height="30" as="alternateBounds" />
          </mxGeometry>
        </mxCell>
        <mxCell id="1QTL2UDU8CIlQ4XkbXj3-188" value="Clinica" style="shape=table;startSize=32;container=1;collapsible=1;childLayout=tableLayout;fixedRows=1;rowLines=0;fontStyle=1;align=center;resizeLast=1;html=1;fillColor=#e6d0de;gradientColor=#d5739d;strokeColor=#996185;" parent="1" vertex="1">
          <mxGeometry x="857" y="844" width="180" height="212" as="geometry" />
        </mxCell>
        <mxCell id="1QTL2UDU8CIlQ4XkbXj3-189" value="" style="shape=tableRow;horizontal=0;startSize=0;swimlaneHead=0;swimlaneBody=0;fillColor=none;collapsible=0;dropTarget=0;points=[[0,0.5],[1,0.5]];portConstraint=eastwest;top=0;left=0;right=0;bottom=1;" parent="1QTL2UDU8CIlQ4XkbXj3-188" vertex="1">
          <mxGeometry y="32" width="180" height="30" as="geometry" />
        </mxCell>
        <mxCell id="1QTL2UDU8CIlQ4XkbXj3-190" value="PK" style="shape=partialRectangle;connectable=0;fillColor=none;top=0;left=0;bottom=0;right=0;fontStyle=1;overflow=hidden;whiteSpace=wrap;html=1;" parent="1QTL2UDU8CIlQ4XkbXj3-189" vertex="1">
          <mxGeometry width="30" height="30" as="geometry">
            <mxRectangle width="30" height="30" as="alternateBounds" />
          </mxGeometry>
        </mxCell>
        <mxCell id="1QTL2UDU8CIlQ4XkbXj3-191" value="IdClinica" style="shape=partialRectangle;connectable=0;fillColor=none;top=0;left=0;bottom=0;right=0;align=left;spacingLeft=6;fontStyle=5;overflow=hidden;whiteSpace=wrap;html=1;" parent="1QTL2UDU8CIlQ4XkbXj3-189" vertex="1">
          <mxGeometry x="30" width="150" height="30" as="geometry">
            <mxRectangle width="150" height="30" as="alternateBounds" />
          </mxGeometry>
        </mxCell>
        <mxCell id="1QTL2UDU8CIlQ4XkbXj3-192" value="" style="shape=tableRow;horizontal=0;startSize=0;swimlaneHead=0;swimlaneBody=0;fillColor=none;collapsible=0;dropTarget=0;points=[[0,0.5],[1,0.5]];portConstraint=eastwest;top=0;left=0;right=0;bottom=0;" parent="1QTL2UDU8CIlQ4XkbXj3-188" vertex="1">
          <mxGeometry y="62" width="180" height="30" as="geometry" />
        </mxCell>
        <mxCell id="1QTL2UDU8CIlQ4XkbXj3-193" value="" style="shape=partialRectangle;connectable=0;fillColor=none;top=0;left=0;bottom=0;right=0;editable=1;overflow=hidden;whiteSpace=wrap;html=1;" parent="1QTL2UDU8CIlQ4XkbXj3-192" vertex="1">
          <mxGeometry width="30" height="30" as="geometry">
            <mxRectangle width="30" height="30" as="alternateBounds" />
          </mxGeometry>
        </mxCell>
        <mxCell id="1QTL2UDU8CIlQ4XkbXj3-194" value="NomeFantasia" style="shape=partialRectangle;connectable=0;fillColor=none;top=0;left=0;bottom=0;right=0;align=left;spacingLeft=6;overflow=hidden;whiteSpace=wrap;html=1;" parent="1QTL2UDU8CIlQ4XkbXj3-192" vertex="1">
          <mxGeometry x="30" width="150" height="30" as="geometry">
            <mxRectangle width="150" height="30" as="alternateBounds" />
          </mxGeometry>
        </mxCell>
        <mxCell id="1QTL2UDU8CIlQ4XkbXj3-195" value="" style="shape=tableRow;horizontal=0;startSize=0;swimlaneHead=0;swimlaneBody=0;fillColor=none;collapsible=0;dropTarget=0;points=[[0,0.5],[1,0.5]];portConstraint=eastwest;top=0;left=0;right=0;bottom=0;" parent="1QTL2UDU8CIlQ4XkbXj3-188" vertex="1">
          <mxGeometry y="92" width="180" height="30" as="geometry" />
        </mxCell>
        <mxCell id="1QTL2UDU8CIlQ4XkbXj3-196" value="" style="shape=partialRectangle;connectable=0;fillColor=none;top=0;left=0;bottom=0;right=0;editable=1;overflow=hidden;whiteSpace=wrap;html=1;" parent="1QTL2UDU8CIlQ4XkbXj3-195" vertex="1">
          <mxGeometry width="30" height="30" as="geometry">
            <mxRectangle width="30" height="30" as="alternateBounds" />
          </mxGeometry>
        </mxCell>
        <mxCell id="1QTL2UDU8CIlQ4XkbXj3-197" value="Endereco" style="shape=partialRectangle;connectable=0;fillColor=none;top=0;left=0;bottom=0;right=0;align=left;spacingLeft=6;overflow=hidden;whiteSpace=wrap;html=1;" parent="1QTL2UDU8CIlQ4XkbXj3-195" vertex="1">
          <mxGeometry x="30" width="150" height="30" as="geometry">
            <mxRectangle width="150" height="30" as="alternateBounds" />
          </mxGeometry>
        </mxCell>
        <mxCell id="1QTL2UDU8CIlQ4XkbXj3-198" value="" style="shape=tableRow;horizontal=0;startSize=0;swimlaneHead=0;swimlaneBody=0;fillColor=none;collapsible=0;dropTarget=0;points=[[0,0.5],[1,0.5]];portConstraint=eastwest;top=0;left=0;right=0;bottom=0;" parent="1QTL2UDU8CIlQ4XkbXj3-188" vertex="1">
          <mxGeometry y="122" width="180" height="30" as="geometry" />
        </mxCell>
        <mxCell id="1QTL2UDU8CIlQ4XkbXj3-199" value="" style="shape=partialRectangle;connectable=0;fillColor=none;top=0;left=0;bottom=0;right=0;editable=1;overflow=hidden;whiteSpace=wrap;html=1;" parent="1QTL2UDU8CIlQ4XkbXj3-198" vertex="1">
          <mxGeometry width="30" height="30" as="geometry">
            <mxRectangle width="30" height="30" as="alternateBounds" />
          </mxGeometry>
        </mxCell>
        <mxCell id="1QTL2UDU8CIlQ4XkbXj3-200" value="CNPJ" style="shape=partialRectangle;connectable=0;fillColor=none;top=0;left=0;bottom=0;right=0;align=left;spacingLeft=6;overflow=hidden;whiteSpace=wrap;html=1;" parent="1QTL2UDU8CIlQ4XkbXj3-198" vertex="1">
          <mxGeometry x="30" width="150" height="30" as="geometry">
            <mxRectangle width="150" height="30" as="alternateBounds" />
          </mxGeometry>
        </mxCell>
        <mxCell id="1QTL2UDU8CIlQ4XkbXj3-227" style="shape=tableRow;horizontal=0;startSize=0;swimlaneHead=0;swimlaneBody=0;fillColor=none;collapsible=0;dropTarget=0;points=[[0,0.5],[1,0.5]];portConstraint=eastwest;top=0;left=0;right=0;bottom=0;" parent="1QTL2UDU8CIlQ4XkbXj3-188" vertex="1">
          <mxGeometry y="152" width="180" height="30" as="geometry" />
        </mxCell>
        <mxCell id="1QTL2UDU8CIlQ4XkbXj3-228" style="shape=partialRectangle;connectable=0;fillColor=none;top=0;left=0;bottom=0;right=0;editable=1;overflow=hidden;whiteSpace=wrap;html=1;" parent="1QTL2UDU8CIlQ4XkbXj3-227" vertex="1">
          <mxGeometry width="30" height="30" as="geometry">
            <mxRectangle width="30" height="30" as="alternateBounds" />
          </mxGeometry>
        </mxCell>
        <mxCell id="1QTL2UDU8CIlQ4XkbXj3-229" value="HorarioFuncionamento" style="shape=partialRectangle;connectable=0;fillColor=none;top=0;left=0;bottom=0;right=0;align=left;spacingLeft=6;overflow=hidden;whiteSpace=wrap;html=1;" parent="1QTL2UDU8CIlQ4XkbXj3-227" vertex="1">
          <mxGeometry x="30" width="150" height="30" as="geometry">
            <mxRectangle width="150" height="30" as="alternateBounds" />
          </mxGeometry>
        </mxCell>
        <mxCell id="1QTL2UDU8CIlQ4XkbXj3-224" style="shape=tableRow;horizontal=0;startSize=0;swimlaneHead=0;swimlaneBody=0;fillColor=none;collapsible=0;dropTarget=0;points=[[0,0.5],[1,0.5]];portConstraint=eastwest;top=0;left=0;right=0;bottom=0;" parent="1QTL2UDU8CIlQ4XkbXj3-188" vertex="1">
          <mxGeometry y="182" width="180" height="30" as="geometry" />
        </mxCell>
        <mxCell id="1QTL2UDU8CIlQ4XkbXj3-225" style="shape=partialRectangle;connectable=0;fillColor=none;top=0;left=0;bottom=0;right=0;editable=1;overflow=hidden;whiteSpace=wrap;html=1;" parent="1QTL2UDU8CIlQ4XkbXj3-224" vertex="1">
          <mxGeometry width="30" height="30" as="geometry">
            <mxRectangle width="30" height="30" as="alternateBounds" />
          </mxGeometry>
        </mxCell>
        <mxCell id="1QTL2UDU8CIlQ4XkbXj3-226" value="RazaoSocial" style="shape=partialRectangle;connectable=0;fillColor=none;top=0;left=0;bottom=0;right=0;align=left;spacingLeft=6;overflow=hidden;whiteSpace=wrap;html=1;" parent="1QTL2UDU8CIlQ4XkbXj3-224" vertex="1">
          <mxGeometry x="30" width="150" height="30" as="geometry">
            <mxRectangle width="150" height="30" as="alternateBounds" />
          </mxGeometry>
        </mxCell>
        <mxCell id="1QTL2UDU8CIlQ4XkbXj3-237" value="Especialidade" style="shape=table;startSize=30;container=1;collapsible=1;childLayout=tableLayout;fixedRows=1;rowLines=0;fontStyle=1;align=center;resizeLast=1;html=1;fillColor=#e6d0de;gradientColor=#d5739d;strokeColor=#996185;" parent="1" vertex="1">
          <mxGeometry x="1127" y="1128" width="180" height="90" as="geometry" />
        </mxCell>
        <mxCell id="1QTL2UDU8CIlQ4XkbXj3-238" value="" style="shape=tableRow;horizontal=0;startSize=0;swimlaneHead=0;swimlaneBody=0;fillColor=none;collapsible=0;dropTarget=0;points=[[0,0.5],[1,0.5]];portConstraint=eastwest;top=0;left=0;right=0;bottom=1;" parent="1QTL2UDU8CIlQ4XkbXj3-237" vertex="1">
          <mxGeometry y="30" width="180" height="30" as="geometry" />
        </mxCell>
        <mxCell id="1QTL2UDU8CIlQ4XkbXj3-239" value="PK" style="shape=partialRectangle;connectable=0;fillColor=none;top=0;left=0;bottom=0;right=0;fontStyle=1;overflow=hidden;whiteSpace=wrap;html=1;" parent="1QTL2UDU8CIlQ4XkbXj3-238" vertex="1">
          <mxGeometry width="30" height="30" as="geometry">
            <mxRectangle width="30" height="30" as="alternateBounds" />
          </mxGeometry>
        </mxCell>
        <mxCell id="1QTL2UDU8CIlQ4XkbXj3-240" value="IdEspecialidade" style="shape=partialRectangle;connectable=0;fillColor=none;top=0;left=0;bottom=0;right=0;align=left;spacingLeft=6;fontStyle=5;overflow=hidden;whiteSpace=wrap;html=1;" parent="1QTL2UDU8CIlQ4XkbXj3-238" vertex="1">
          <mxGeometry x="30" width="150" height="30" as="geometry">
            <mxRectangle width="150" height="30" as="alternateBounds" />
          </mxGeometry>
        </mxCell>
        <mxCell id="1QTL2UDU8CIlQ4XkbXj3-241" value="" style="shape=tableRow;horizontal=0;startSize=0;swimlaneHead=0;swimlaneBody=0;fillColor=none;collapsible=0;dropTarget=0;points=[[0,0.5],[1,0.5]];portConstraint=eastwest;top=0;left=0;right=0;bottom=0;" parent="1QTL2UDU8CIlQ4XkbXj3-237" vertex="1">
          <mxGeometry y="60" width="180" height="30" as="geometry" />
        </mxCell>
        <mxCell id="1QTL2UDU8CIlQ4XkbXj3-242" value="" style="shape=partialRectangle;connectable=0;fillColor=none;top=0;left=0;bottom=0;right=0;editable=1;overflow=hidden;whiteSpace=wrap;html=1;" parent="1QTL2UDU8CIlQ4XkbXj3-241" vertex="1">
          <mxGeometry width="30" height="30" as="geometry">
            <mxRectangle width="30" height="30" as="alternateBounds" />
          </mxGeometry>
        </mxCell>
        <mxCell id="1QTL2UDU8CIlQ4XkbXj3-243" value="DescricaoEspecialidade" style="shape=partialRectangle;connectable=0;fillColor=none;top=0;left=0;bottom=0;right=0;align=left;spacingLeft=6;overflow=hidden;whiteSpace=wrap;html=1;" parent="1QTL2UDU8CIlQ4XkbXj3-241" vertex="1">
          <mxGeometry x="30" width="150" height="30" as="geometry">
            <mxRectangle width="150" height="30" as="alternateBounds" />
          </mxGeometry>
        </mxCell>
        <mxCell id="1QTL2UDU8CIlQ4XkbXj3-244" value="Paciente" style="shape=table;startSize=32;container=1;collapsible=1;childLayout=tableLayout;fixedRows=1;rowLines=0;fontStyle=1;align=center;resizeLast=1;html=1;whiteSpace=wrap;fillColor=#e6d0de;gradientColor=#d5739d;strokeColor=#996185;" parent="1" vertex="1">
          <mxGeometry x="1147" y="510" width="180" height="272" as="geometry" />
        </mxCell>
        <mxCell id="1QTL2UDU8CIlQ4XkbXj3-245" value="" style="shape=tableRow;horizontal=0;startSize=0;swimlaneHead=0;swimlaneBody=0;fillColor=none;collapsible=0;dropTarget=0;points=[[0,0.5],[1,0.5]];portConstraint=eastwest;top=0;left=0;right=0;bottom=0;html=1;" parent="1QTL2UDU8CIlQ4XkbXj3-244" vertex="1">
          <mxGeometry y="32" width="180" height="30" as="geometry" />
        </mxCell>
        <mxCell id="1QTL2UDU8CIlQ4XkbXj3-246" value="PK" style="shape=partialRectangle;connectable=0;fillColor=none;top=0;left=0;bottom=0;right=0;fontStyle=1;overflow=hidden;html=1;whiteSpace=wrap;" parent="1QTL2UDU8CIlQ4XkbXj3-245" vertex="1">
          <mxGeometry width="60" height="30" as="geometry">
            <mxRectangle width="60" height="30" as="alternateBounds" />
          </mxGeometry>
        </mxCell>
        <mxCell id="1QTL2UDU8CIlQ4XkbXj3-247" value="IdPaciente" style="shape=partialRectangle;connectable=0;fillColor=none;top=0;left=0;bottom=0;right=0;align=left;spacingLeft=6;fontStyle=5;overflow=hidden;html=1;whiteSpace=wrap;" parent="1QTL2UDU8CIlQ4XkbXj3-245" vertex="1">
          <mxGeometry x="60" width="120" height="30" as="geometry">
            <mxRectangle width="120" height="30" as="alternateBounds" />
          </mxGeometry>
        </mxCell>
        <mxCell id="1QTL2UDU8CIlQ4XkbXj3-248" value="" style="shape=tableRow;horizontal=0;startSize=0;swimlaneHead=0;swimlaneBody=0;fillColor=none;collapsible=0;dropTarget=0;points=[[0,0.5],[1,0.5]];portConstraint=eastwest;top=0;left=0;right=0;bottom=1;html=1;" parent="1QTL2UDU8CIlQ4XkbXj3-244" vertex="1">
          <mxGeometry y="62" width="180" height="30" as="geometry" />
        </mxCell>
        <mxCell id="1QTL2UDU8CIlQ4XkbXj3-249" value="FK2" style="shape=partialRectangle;connectable=0;fillColor=none;top=0;left=0;bottom=0;right=0;fontStyle=1;overflow=hidden;html=1;whiteSpace=wrap;" parent="1QTL2UDU8CIlQ4XkbXj3-248" vertex="1">
          <mxGeometry width="60" height="30" as="geometry">
            <mxRectangle width="60" height="30" as="alternateBounds" />
          </mxGeometry>
        </mxCell>
        <mxCell id="1QTL2UDU8CIlQ4XkbXj3-250" value="IdUsuario" style="shape=partialRectangle;connectable=0;fillColor=none;top=0;left=0;bottom=0;right=0;align=left;spacingLeft=6;fontStyle=5;overflow=hidden;html=1;whiteSpace=wrap;" parent="1QTL2UDU8CIlQ4XkbXj3-248" vertex="1">
          <mxGeometry x="60" width="120" height="30" as="geometry">
            <mxRectangle width="120" height="30" as="alternateBounds" />
          </mxGeometry>
        </mxCell>
        <mxCell id="1QTL2UDU8CIlQ4XkbXj3-251" value="" style="shape=tableRow;horizontal=0;startSize=0;swimlaneHead=0;swimlaneBody=0;fillColor=none;collapsible=0;dropTarget=0;points=[[0,0.5],[1,0.5]];portConstraint=eastwest;top=0;left=0;right=0;bottom=0;html=1;" parent="1QTL2UDU8CIlQ4XkbXj3-244" vertex="1">
          <mxGeometry y="92" width="180" height="30" as="geometry" />
        </mxCell>
        <mxCell id="1QTL2UDU8CIlQ4XkbXj3-252" value="" style="shape=partialRectangle;connectable=0;fillColor=none;top=0;left=0;bottom=0;right=0;editable=1;overflow=hidden;html=1;whiteSpace=wrap;" parent="1QTL2UDU8CIlQ4XkbXj3-251" vertex="1">
          <mxGeometry width="60" height="30" as="geometry">
            <mxRectangle width="60" height="30" as="alternateBounds" />
          </mxGeometry>
        </mxCell>
        <mxCell id="1QTL2UDU8CIlQ4XkbXj3-253" value="NomePaciente" style="shape=partialRectangle;connectable=0;fillColor=none;top=0;left=0;bottom=0;right=0;align=left;spacingLeft=6;overflow=hidden;html=1;whiteSpace=wrap;" parent="1QTL2UDU8CIlQ4XkbXj3-251" vertex="1">
          <mxGeometry x="60" width="120" height="30" as="geometry">
            <mxRectangle width="120" height="30" as="alternateBounds" />
          </mxGeometry>
        </mxCell>
        <mxCell id="1QTL2UDU8CIlQ4XkbXj3-254" value="" style="shape=tableRow;horizontal=0;startSize=0;swimlaneHead=0;swimlaneBody=0;fillColor=none;collapsible=0;dropTarget=0;points=[[0,0.5],[1,0.5]];portConstraint=eastwest;top=0;left=0;right=0;bottom=0;html=1;" parent="1QTL2UDU8CIlQ4XkbXj3-244" vertex="1">
          <mxGeometry y="122" width="180" height="30" as="geometry" />
        </mxCell>
        <mxCell id="1QTL2UDU8CIlQ4XkbXj3-255" value="" style="shape=partialRectangle;connectable=0;fillColor=none;top=0;left=0;bottom=0;right=0;editable=1;overflow=hidden;html=1;whiteSpace=wrap;" parent="1QTL2UDU8CIlQ4XkbXj3-254" vertex="1">
          <mxGeometry width="60" height="30" as="geometry">
            <mxRectangle width="60" height="30" as="alternateBounds" />
          </mxGeometry>
        </mxCell>
        <mxCell id="1QTL2UDU8CIlQ4XkbXj3-256" value="RG" style="shape=partialRectangle;connectable=0;fillColor=none;top=0;left=0;bottom=0;right=0;align=left;spacingLeft=6;overflow=hidden;html=1;whiteSpace=wrap;" parent="1QTL2UDU8CIlQ4XkbXj3-254" vertex="1">
          <mxGeometry x="60" width="120" height="30" as="geometry">
            <mxRectangle width="120" height="30" as="alternateBounds" />
          </mxGeometry>
        </mxCell>
        <mxCell id="1QTL2UDU8CIlQ4XkbXj3-257" style="shape=tableRow;horizontal=0;startSize=0;swimlaneHead=0;swimlaneBody=0;fillColor=none;collapsible=0;dropTarget=0;points=[[0,0.5],[1,0.5]];portConstraint=eastwest;top=0;left=0;right=0;bottom=0;html=1;" parent="1QTL2UDU8CIlQ4XkbXj3-244" vertex="1">
          <mxGeometry y="152" width="180" height="30" as="geometry" />
        </mxCell>
        <mxCell id="1QTL2UDU8CIlQ4XkbXj3-258" style="shape=partialRectangle;connectable=0;fillColor=none;top=0;left=0;bottom=0;right=0;editable=1;overflow=hidden;html=1;whiteSpace=wrap;" parent="1QTL2UDU8CIlQ4XkbXj3-257" vertex="1">
          <mxGeometry width="60" height="30" as="geometry">
            <mxRectangle width="60" height="30" as="alternateBounds" />
          </mxGeometry>
        </mxCell>
        <mxCell id="1QTL2UDU8CIlQ4XkbXj3-259" value="CPF" style="shape=partialRectangle;connectable=0;fillColor=none;top=0;left=0;bottom=0;right=0;align=left;spacingLeft=6;overflow=hidden;html=1;whiteSpace=wrap;" parent="1QTL2UDU8CIlQ4XkbXj3-257" vertex="1">
          <mxGeometry x="60" width="120" height="30" as="geometry">
            <mxRectangle width="120" height="30" as="alternateBounds" />
          </mxGeometry>
        </mxCell>
        <mxCell id="1QTL2UDU8CIlQ4XkbXj3-260" style="shape=tableRow;horizontal=0;startSize=0;swimlaneHead=0;swimlaneBody=0;fillColor=none;collapsible=0;dropTarget=0;points=[[0,0.5],[1,0.5]];portConstraint=eastwest;top=0;left=0;right=0;bottom=0;html=1;" parent="1QTL2UDU8CIlQ4XkbXj3-244" vertex="1">
          <mxGeometry y="182" width="180" height="30" as="geometry" />
        </mxCell>
        <mxCell id="1QTL2UDU8CIlQ4XkbXj3-261" style="shape=partialRectangle;connectable=0;fillColor=none;top=0;left=0;bottom=0;right=0;editable=1;overflow=hidden;html=1;whiteSpace=wrap;" parent="1QTL2UDU8CIlQ4XkbXj3-260" vertex="1">
          <mxGeometry width="60" height="30" as="geometry">
            <mxRectangle width="60" height="30" as="alternateBounds" />
          </mxGeometry>
        </mxCell>
        <mxCell id="1QTL2UDU8CIlQ4XkbXj3-262" value="DataNascimento" style="shape=partialRectangle;connectable=0;fillColor=none;top=0;left=0;bottom=0;right=0;align=left;spacingLeft=6;overflow=hidden;html=1;whiteSpace=wrap;" parent="1QTL2UDU8CIlQ4XkbXj3-260" vertex="1">
          <mxGeometry x="60" width="120" height="30" as="geometry">
            <mxRectangle width="120" height="30" as="alternateBounds" />
          </mxGeometry>
        </mxCell>
        <mxCell id="1QTL2UDU8CIlQ4XkbXj3-272" style="shape=tableRow;horizontal=0;startSize=0;swimlaneHead=0;swimlaneBody=0;fillColor=none;collapsible=0;dropTarget=0;points=[[0,0.5],[1,0.5]];portConstraint=eastwest;top=0;left=0;right=0;bottom=0;html=1;" parent="1QTL2UDU8CIlQ4XkbXj3-244" vertex="1">
          <mxGeometry y="212" width="180" height="30" as="geometry" />
        </mxCell>
        <mxCell id="1QTL2UDU8CIlQ4XkbXj3-273" style="shape=partialRectangle;connectable=0;fillColor=none;top=0;left=0;bottom=0;right=0;editable=1;overflow=hidden;html=1;whiteSpace=wrap;" parent="1QTL2UDU8CIlQ4XkbXj3-272" vertex="1">
          <mxGeometry width="60" height="30" as="geometry">
            <mxRectangle width="60" height="30" as="alternateBounds" />
          </mxGeometry>
        </mxCell>
        <mxCell id="1QTL2UDU8CIlQ4XkbXj3-274" value="Telefone&amp;nbsp;" style="shape=partialRectangle;connectable=0;fillColor=none;top=0;left=0;bottom=0;right=0;align=left;spacingLeft=6;overflow=hidden;html=1;whiteSpace=wrap;" parent="1QTL2UDU8CIlQ4XkbXj3-272" vertex="1">
          <mxGeometry x="60" width="120" height="30" as="geometry">
            <mxRectangle width="120" height="30" as="alternateBounds" />
          </mxGeometry>
        </mxCell>
        <mxCell id="1QTL2UDU8CIlQ4XkbXj3-269" style="shape=tableRow;horizontal=0;startSize=0;swimlaneHead=0;swimlaneBody=0;fillColor=none;collapsible=0;dropTarget=0;points=[[0,0.5],[1,0.5]];portConstraint=eastwest;top=0;left=0;right=0;bottom=0;html=1;" parent="1QTL2UDU8CIlQ4XkbXj3-244" vertex="1">
          <mxGeometry y="242" width="180" height="30" as="geometry" />
        </mxCell>
        <mxCell id="1QTL2UDU8CIlQ4XkbXj3-270" style="shape=partialRectangle;connectable=0;fillColor=none;top=0;left=0;bottom=0;right=0;editable=1;overflow=hidden;html=1;whiteSpace=wrap;" parent="1QTL2UDU8CIlQ4XkbXj3-269" vertex="1">
          <mxGeometry width="60" height="30" as="geometry">
            <mxRectangle width="60" height="30" as="alternateBounds" />
          </mxGeometry>
        </mxCell>
        <mxCell id="1QTL2UDU8CIlQ4XkbXj3-271" value="Endereco" style="shape=partialRectangle;connectable=0;fillColor=none;top=0;left=0;bottom=0;right=0;align=left;spacingLeft=6;overflow=hidden;html=1;whiteSpace=wrap;" parent="1QTL2UDU8CIlQ4XkbXj3-269" vertex="1">
          <mxGeometry x="60" width="120" height="30" as="geometry">
            <mxRectangle width="120" height="30" as="alternateBounds" />
          </mxGeometry>
        </mxCell>
        <mxCell id="1QTL2UDU8CIlQ4XkbXj3-275" value="Comentario" style="shape=table;startSize=30;container=1;collapsible=1;childLayout=tableLayout;fixedRows=1;rowLines=0;fontStyle=1;align=center;resizeLast=1;html=1;whiteSpace=wrap;fillColor=#e6d0de;gradientColor=#d5739d;strokeColor=#996185;" parent="1" vertex="1">
          <mxGeometry x="1407" y="520" width="180" height="180" as="geometry" />
        </mxCell>
        <mxCell id="1QTL2UDU8CIlQ4XkbXj3-276" value="" style="shape=tableRow;horizontal=0;startSize=0;swimlaneHead=0;swimlaneBody=0;fillColor=none;collapsible=0;dropTarget=0;points=[[0,0.5],[1,0.5]];portConstraint=eastwest;top=0;left=0;right=0;bottom=0;html=1;" parent="1QTL2UDU8CIlQ4XkbXj3-275" vertex="1">
          <mxGeometry y="30" width="180" height="30" as="geometry" />
        </mxCell>
        <mxCell id="1QTL2UDU8CIlQ4XkbXj3-277" value="PK" style="shape=partialRectangle;connectable=0;fillColor=none;top=0;left=0;bottom=0;right=0;fontStyle=1;overflow=hidden;html=1;whiteSpace=wrap;" parent="1QTL2UDU8CIlQ4XkbXj3-276" vertex="1">
          <mxGeometry width="60" height="30" as="geometry">
            <mxRectangle width="60" height="30" as="alternateBounds" />
          </mxGeometry>
        </mxCell>
        <mxCell id="1QTL2UDU8CIlQ4XkbXj3-278" value="IdComentario" style="shape=partialRectangle;connectable=0;fillColor=none;top=0;left=0;bottom=0;right=0;align=left;spacingLeft=6;fontStyle=5;overflow=hidden;html=1;whiteSpace=wrap;" parent="1QTL2UDU8CIlQ4XkbXj3-276" vertex="1">
          <mxGeometry x="60" width="120" height="30" as="geometry">
            <mxRectangle width="120" height="30" as="alternateBounds" />
          </mxGeometry>
        </mxCell>
        <mxCell id="oid0VO_j-IJUv03uD-GG-28" style="shape=tableRow;horizontal=0;startSize=0;swimlaneHead=0;swimlaneBody=0;fillColor=none;collapsible=0;dropTarget=0;points=[[0,0.5],[1,0.5]];portConstraint=eastwest;top=0;left=0;right=0;bottom=0;html=1;" parent="1QTL2UDU8CIlQ4XkbXj3-275" vertex="1">
          <mxGeometry y="60" width="180" height="30" as="geometry" />
        </mxCell>
        <mxCell id="oid0VO_j-IJUv03uD-GG-29" value="FK1" style="shape=partialRectangle;connectable=0;fillColor=none;top=0;left=0;bottom=0;right=0;fontStyle=1;overflow=hidden;html=1;whiteSpace=wrap;" parent="oid0VO_j-IJUv03uD-GG-28" vertex="1">
          <mxGeometry width="60" height="30" as="geometry">
            <mxRectangle width="60" height="30" as="alternateBounds" />
          </mxGeometry>
        </mxCell>
        <mxCell id="oid0VO_j-IJUv03uD-GG-30" value="IdPaciente" style="shape=partialRectangle;connectable=0;fillColor=none;top=0;left=0;bottom=0;right=0;align=left;spacingLeft=6;fontStyle=5;overflow=hidden;html=1;whiteSpace=wrap;" parent="oid0VO_j-IJUv03uD-GG-28" vertex="1">
          <mxGeometry x="60" width="120" height="30" as="geometry">
            <mxRectangle width="120" height="30" as="alternateBounds" />
          </mxGeometry>
        </mxCell>
        <mxCell id="1QTL2UDU8CIlQ4XkbXj3-279" value="" style="shape=tableRow;horizontal=0;startSize=0;swimlaneHead=0;swimlaneBody=0;fillColor=none;collapsible=0;dropTarget=0;points=[[0,0.5],[1,0.5]];portConstraint=eastwest;top=0;left=0;right=0;bottom=1;html=1;" parent="1QTL2UDU8CIlQ4XkbXj3-275" vertex="1">
          <mxGeometry y="90" width="180" height="30" as="geometry" />
        </mxCell>
        <mxCell id="1QTL2UDU8CIlQ4XkbXj3-280" value="FK2" style="shape=partialRectangle;connectable=0;fillColor=none;top=0;left=0;bottom=0;right=0;fontStyle=1;overflow=hidden;html=1;whiteSpace=wrap;" parent="1QTL2UDU8CIlQ4XkbXj3-279" vertex="1">
          <mxGeometry width="60" height="30" as="geometry">
            <mxRectangle width="60" height="30" as="alternateBounds" />
          </mxGeometry>
        </mxCell>
        <mxCell id="1QTL2UDU8CIlQ4XkbXj3-281" value="IdConsulta" style="shape=partialRectangle;connectable=0;fillColor=none;top=0;left=0;bottom=0;right=0;align=left;spacingLeft=6;fontStyle=5;overflow=hidden;html=1;whiteSpace=wrap;" parent="1QTL2UDU8CIlQ4XkbXj3-279" vertex="1">
          <mxGeometry x="60" width="120" height="30" as="geometry">
            <mxRectangle width="120" height="30" as="alternateBounds" />
          </mxGeometry>
        </mxCell>
        <mxCell id="1QTL2UDU8CIlQ4XkbXj3-282" value="" style="shape=tableRow;horizontal=0;startSize=0;swimlaneHead=0;swimlaneBody=0;fillColor=none;collapsible=0;dropTarget=0;points=[[0,0.5],[1,0.5]];portConstraint=eastwest;top=0;left=0;right=0;bottom=0;html=1;" parent="1QTL2UDU8CIlQ4XkbXj3-275" vertex="1">
          <mxGeometry y="120" width="180" height="30" as="geometry" />
        </mxCell>
        <mxCell id="1QTL2UDU8CIlQ4XkbXj3-283" value="" style="shape=partialRectangle;connectable=0;fillColor=none;top=0;left=0;bottom=0;right=0;editable=1;overflow=hidden;html=1;whiteSpace=wrap;" parent="1QTL2UDU8CIlQ4XkbXj3-282" vertex="1">
          <mxGeometry width="60" height="30" as="geometry">
            <mxRectangle width="60" height="30" as="alternateBounds" />
          </mxGeometry>
        </mxCell>
        <mxCell id="1QTL2UDU8CIlQ4XkbXj3-284" value="Descricao" style="shape=partialRectangle;connectable=0;fillColor=none;top=0;left=0;bottom=0;right=0;align=left;spacingLeft=6;overflow=hidden;html=1;whiteSpace=wrap;" parent="1QTL2UDU8CIlQ4XkbXj3-282" vertex="1">
          <mxGeometry x="60" width="120" height="30" as="geometry">
            <mxRectangle width="120" height="30" as="alternateBounds" />
          </mxGeometry>
        </mxCell>
        <mxCell id="1QTL2UDU8CIlQ4XkbXj3-288" style="shape=tableRow;horizontal=0;startSize=0;swimlaneHead=0;swimlaneBody=0;fillColor=none;collapsible=0;dropTarget=0;points=[[0,0.5],[1,0.5]];portConstraint=eastwest;top=0;left=0;right=0;bottom=0;html=1;" parent="1QTL2UDU8CIlQ4XkbXj3-275" vertex="1">
          <mxGeometry y="150" width="180" height="30" as="geometry" />
        </mxCell>
        <mxCell id="1QTL2UDU8CIlQ4XkbXj3-289" style="shape=partialRectangle;connectable=0;fillColor=none;top=0;left=0;bottom=0;right=0;editable=1;overflow=hidden;html=1;whiteSpace=wrap;" parent="1QTL2UDU8CIlQ4XkbXj3-288" vertex="1">
          <mxGeometry width="60" height="30" as="geometry">
            <mxRectangle width="60" height="30" as="alternateBounds" />
          </mxGeometry>
        </mxCell>
        <mxCell id="1QTL2UDU8CIlQ4XkbXj3-290" value="Exibe" style="shape=partialRectangle;connectable=0;fillColor=none;top=0;left=0;bottom=0;right=0;align=left;spacingLeft=6;overflow=hidden;html=1;whiteSpace=wrap;" parent="1QTL2UDU8CIlQ4XkbXj3-288" vertex="1">
          <mxGeometry x="60" width="120" height="30" as="geometry">
            <mxRectangle width="120" height="30" as="alternateBounds" />
          </mxGeometry>
        </mxCell>
        <mxCell id="1QTL2UDU8CIlQ4XkbXj3-297" value="Medico" style="shape=table;startSize=30;container=1;collapsible=1;childLayout=tableLayout;fixedRows=1;rowLines=0;fontStyle=1;align=center;resizeLast=1;html=1;whiteSpace=wrap;fillColor=#e6d0de;gradientColor=#d5739d;strokeColor=#996185;" parent="1" vertex="1">
          <mxGeometry x="1137" y="850" width="180" height="180" as="geometry" />
        </mxCell>
        <mxCell id="1QTL2UDU8CIlQ4XkbXj3-298" value="" style="shape=tableRow;horizontal=0;startSize=0;swimlaneHead=0;swimlaneBody=0;fillColor=none;collapsible=0;dropTarget=0;points=[[0,0.5],[1,0.5]];portConstraint=eastwest;top=0;left=0;right=0;bottom=0;html=1;" parent="1QTL2UDU8CIlQ4XkbXj3-297" vertex="1">
          <mxGeometry y="30" width="180" height="30" as="geometry" />
        </mxCell>
        <mxCell id="1QTL2UDU8CIlQ4XkbXj3-299" value="PK" style="shape=partialRectangle;connectable=0;fillColor=none;top=0;left=0;bottom=0;right=0;fontStyle=1;overflow=hidden;html=1;whiteSpace=wrap;" parent="1QTL2UDU8CIlQ4XkbXj3-298" vertex="1">
          <mxGeometry width="60" height="30" as="geometry">
            <mxRectangle width="60" height="30" as="alternateBounds" />
          </mxGeometry>
        </mxCell>
        <mxCell id="1QTL2UDU8CIlQ4XkbXj3-300" value="IdMedico" style="shape=partialRectangle;connectable=0;fillColor=none;top=0;left=0;bottom=0;right=0;align=left;spacingLeft=6;fontStyle=5;overflow=hidden;html=1;whiteSpace=wrap;" parent="1QTL2UDU8CIlQ4XkbXj3-298" vertex="1">
          <mxGeometry x="60" width="120" height="30" as="geometry">
            <mxRectangle width="120" height="30" as="alternateBounds" />
          </mxGeometry>
        </mxCell>
        <mxCell id="1QTL2UDU8CIlQ4XkbXj3-301" style="shape=tableRow;horizontal=0;startSize=0;swimlaneHead=0;swimlaneBody=0;fillColor=none;collapsible=0;dropTarget=0;points=[[0,0.5],[1,0.5]];portConstraint=eastwest;top=0;left=0;right=0;bottom=0;html=1;" parent="1QTL2UDU8CIlQ4XkbXj3-297" vertex="1">
          <mxGeometry y="60" width="180" height="30" as="geometry" />
        </mxCell>
        <mxCell id="1QTL2UDU8CIlQ4XkbXj3-302" value="FK1" style="shape=partialRectangle;connectable=0;fillColor=none;top=0;left=0;bottom=0;right=0;fontStyle=1;overflow=hidden;html=1;whiteSpace=wrap;" parent="1QTL2UDU8CIlQ4XkbXj3-301" vertex="1">
          <mxGeometry width="60" height="30" as="geometry">
            <mxRectangle width="60" height="30" as="alternateBounds" />
          </mxGeometry>
        </mxCell>
        <mxCell id="1QTL2UDU8CIlQ4XkbXj3-303" value="IdUsuario" style="shape=partialRectangle;connectable=0;fillColor=none;top=0;left=0;bottom=0;right=0;align=left;spacingLeft=6;fontStyle=5;overflow=hidden;html=1;whiteSpace=wrap;" parent="1QTL2UDU8CIlQ4XkbXj3-301" vertex="1">
          <mxGeometry x="60" width="120" height="30" as="geometry">
            <mxRectangle width="120" height="30" as="alternateBounds" />
          </mxGeometry>
        </mxCell>
        <mxCell id="1QTL2UDU8CIlQ4XkbXj3-316" style="shape=tableRow;horizontal=0;startSize=0;swimlaneHead=0;swimlaneBody=0;fillColor=none;collapsible=0;dropTarget=0;points=[[0,0.5],[1,0.5]];portConstraint=eastwest;top=0;left=0;right=0;bottom=0;html=1;" parent="1QTL2UDU8CIlQ4XkbXj3-297" vertex="1">
          <mxGeometry y="90" width="180" height="30" as="geometry" />
        </mxCell>
        <mxCell id="1QTL2UDU8CIlQ4XkbXj3-317" value="Fk2" style="shape=partialRectangle;connectable=0;fillColor=none;top=0;left=0;bottom=0;right=0;fontStyle=1;overflow=hidden;html=1;whiteSpace=wrap;" parent="1QTL2UDU8CIlQ4XkbXj3-316" vertex="1">
          <mxGeometry width="60" height="30" as="geometry">
            <mxRectangle width="60" height="30" as="alternateBounds" />
          </mxGeometry>
        </mxCell>
        <mxCell id="1QTL2UDU8CIlQ4XkbXj3-318" value="IdClinica" style="shape=partialRectangle;connectable=0;fillColor=none;top=0;left=0;bottom=0;right=0;align=left;spacingLeft=6;fontStyle=5;overflow=hidden;html=1;whiteSpace=wrap;" parent="1QTL2UDU8CIlQ4XkbXj3-316" vertex="1">
          <mxGeometry x="60" width="120" height="30" as="geometry">
            <mxRectangle width="120" height="30" as="alternateBounds" />
          </mxGeometry>
        </mxCell>
        <mxCell id="1QTL2UDU8CIlQ4XkbXj3-304" value="" style="shape=tableRow;horizontal=0;startSize=0;swimlaneHead=0;swimlaneBody=0;fillColor=none;collapsible=0;dropTarget=0;points=[[0,0.5],[1,0.5]];portConstraint=eastwest;top=0;left=0;right=0;bottom=1;html=1;" parent="1QTL2UDU8CIlQ4XkbXj3-297" vertex="1">
          <mxGeometry y="120" width="180" height="30" as="geometry" />
        </mxCell>
        <mxCell id="1QTL2UDU8CIlQ4XkbXj3-305" value="FK3" style="shape=partialRectangle;connectable=0;fillColor=none;top=0;left=0;bottom=0;right=0;fontStyle=1;overflow=hidden;html=1;whiteSpace=wrap;" parent="1QTL2UDU8CIlQ4XkbXj3-304" vertex="1">
          <mxGeometry width="60" height="30" as="geometry">
            <mxRectangle width="60" height="30" as="alternateBounds" />
          </mxGeometry>
        </mxCell>
        <mxCell id="1QTL2UDU8CIlQ4XkbXj3-306" value="IdEspecialidade" style="shape=partialRectangle;connectable=0;fillColor=none;top=0;left=0;bottom=0;right=0;align=left;spacingLeft=6;fontStyle=5;overflow=hidden;html=1;whiteSpace=wrap;" parent="1QTL2UDU8CIlQ4XkbXj3-304" vertex="1">
          <mxGeometry x="60" width="120" height="30" as="geometry">
            <mxRectangle width="120" height="30" as="alternateBounds" />
          </mxGeometry>
        </mxCell>
        <mxCell id="1QTL2UDU8CIlQ4XkbXj3-307" value="" style="shape=tableRow;horizontal=0;startSize=0;swimlaneHead=0;swimlaneBody=0;fillColor=none;collapsible=0;dropTarget=0;points=[[0,0.5],[1,0.5]];portConstraint=eastwest;top=0;left=0;right=0;bottom=0;html=1;" parent="1QTL2UDU8CIlQ4XkbXj3-297" vertex="1">
          <mxGeometry y="150" width="180" height="30" as="geometry" />
        </mxCell>
        <mxCell id="1QTL2UDU8CIlQ4XkbXj3-308" value="" style="shape=partialRectangle;connectable=0;fillColor=none;top=0;left=0;bottom=0;right=0;editable=1;overflow=hidden;html=1;whiteSpace=wrap;" parent="1QTL2UDU8CIlQ4XkbXj3-307" vertex="1">
          <mxGeometry width="60" height="30" as="geometry">
            <mxRectangle width="60" height="30" as="alternateBounds" />
          </mxGeometry>
        </mxCell>
        <mxCell id="1QTL2UDU8CIlQ4XkbXj3-309" value="NomeMedico" style="shape=partialRectangle;connectable=0;fillColor=none;top=0;left=0;bottom=0;right=0;align=left;spacingLeft=6;overflow=hidden;html=1;whiteSpace=wrap;" parent="1QTL2UDU8CIlQ4XkbXj3-307" vertex="1">
          <mxGeometry x="60" width="120" height="30" as="geometry">
            <mxRectangle width="120" height="30" as="alternateBounds" />
          </mxGeometry>
        </mxCell>
        <mxCell id="1QTL2UDU8CIlQ4XkbXj3-319" value="" style="edgeStyle=entityRelationEdgeStyle;fontSize=12;html=1;endArrow=ERoneToMany;rounded=0;entryX=0;entryY=0.5;entryDx=0;entryDy=0;exitX=1;exitY=0.5;exitDx=0;exitDy=0;" parent="1" target="1QTL2UDU8CIlQ4XkbXj3-171" edge="1">
          <mxGeometry width="100" height="100" relative="1" as="geometry">
            <mxPoint x="827" y="545" as="sourcePoint" />
            <mxPoint x="877" y="600" as="targetPoint" />
          </mxGeometry>
        </mxCell>
        <mxCell id="1QTL2UDU8CIlQ4XkbXj3-321" value="" style="edgeStyle=entityRelationEdgeStyle;fontSize=12;html=1;endArrow=ERoneToMany;rounded=0;entryX=0;entryY=0.5;entryDx=0;entryDy=0;exitX=1;exitY=0.5;exitDx=0;exitDy=0;" parent="1" source="1QTL2UDU8CIlQ4XkbXj3-245" edge="1">
          <mxGeometry width="100" height="100" relative="1" as="geometry">
            <mxPoint x="1277" y="740" as="sourcePoint" />
            <mxPoint x="1407" y="595" as="targetPoint" />
          </mxGeometry>
        </mxCell>
        <mxCell id="1QTL2UDU8CIlQ4XkbXj3-322" value="" style="edgeStyle=entityRelationEdgeStyle;fontSize=12;html=1;endArrow=ERoneToMany;rounded=0;entryX=0;entryY=0.5;entryDx=0;entryDy=0;exitX=1;exitY=0.5;exitDx=0;exitDy=0;" parent="1" source="1QTL2UDU8CIlQ4XkbXj3-189" target="1QTL2UDU8CIlQ4XkbXj3-316" edge="1">
          <mxGeometry width="100" height="100" relative="1" as="geometry">
            <mxPoint x="707" y="910" as="sourcePoint" />
            <mxPoint x="807" y="810" as="targetPoint" />
          </mxGeometry>
        </mxCell>
        <mxCell id="1QTL2UDU8CIlQ4XkbXj3-325" value="Consulta" style="shape=table;startSize=30;container=1;collapsible=1;childLayout=tableLayout;fixedRows=1;rowLines=0;fontStyle=1;align=center;resizeLast=1;html=1;whiteSpace=wrap;fillColor=#e6d0de;gradientColor=#d5739d;strokeColor=#996185;" parent="1" vertex="1">
          <mxGeometry x="1417" y="740" width="180" height="180" as="geometry" />
        </mxCell>
        <mxCell id="1QTL2UDU8CIlQ4XkbXj3-326" value="" style="shape=tableRow;horizontal=0;startSize=0;swimlaneHead=0;swimlaneBody=0;fillColor=none;collapsible=0;dropTarget=0;points=[[0,0.5],[1,0.5]];portConstraint=eastwest;top=0;left=0;right=0;bottom=0;html=1;" parent="1QTL2UDU8CIlQ4XkbXj3-325" vertex="1">
          <mxGeometry y="30" width="180" height="30" as="geometry" />
        </mxCell>
        <mxCell id="1QTL2UDU8CIlQ4XkbXj3-327" value="PK" style="shape=partialRectangle;connectable=0;fillColor=none;top=0;left=0;bottom=0;right=0;fontStyle=1;overflow=hidden;html=1;whiteSpace=wrap;" parent="1QTL2UDU8CIlQ4XkbXj3-326" vertex="1">
          <mxGeometry width="60" height="30" as="geometry">
            <mxRectangle width="60" height="30" as="alternateBounds" />
          </mxGeometry>
        </mxCell>
        <mxCell id="1QTL2UDU8CIlQ4XkbXj3-328" value="IdConsulta" style="shape=partialRectangle;connectable=0;fillColor=none;top=0;left=0;bottom=0;right=0;align=left;spacingLeft=6;fontStyle=5;overflow=hidden;html=1;whiteSpace=wrap;" parent="1QTL2UDU8CIlQ4XkbXj3-326" vertex="1">
          <mxGeometry x="60" width="120" height="30" as="geometry">
            <mxRectangle width="120" height="30" as="alternateBounds" />
          </mxGeometry>
        </mxCell>
        <mxCell id="1QTL2UDU8CIlQ4XkbXj3-329" style="shape=tableRow;horizontal=0;startSize=0;swimlaneHead=0;swimlaneBody=0;fillColor=none;collapsible=0;dropTarget=0;points=[[0,0.5],[1,0.5]];portConstraint=eastwest;top=0;left=0;right=0;bottom=0;html=1;" parent="1QTL2UDU8CIlQ4XkbXj3-325" vertex="1">
          <mxGeometry y="60" width="180" height="30" as="geometry" />
        </mxCell>
        <mxCell id="1QTL2UDU8CIlQ4XkbXj3-330" value="FK1" style="shape=partialRectangle;connectable=0;fillColor=none;top=0;left=0;bottom=0;right=0;fontStyle=1;overflow=hidden;html=1;whiteSpace=wrap;" parent="1QTL2UDU8CIlQ4XkbXj3-329" vertex="1">
          <mxGeometry width="60" height="30" as="geometry">
            <mxRectangle width="60" height="30" as="alternateBounds" />
          </mxGeometry>
        </mxCell>
        <mxCell id="1QTL2UDU8CIlQ4XkbXj3-331" value="IdPaciente" style="shape=partialRectangle;connectable=0;fillColor=none;top=0;left=0;bottom=0;right=0;align=left;spacingLeft=6;fontStyle=5;overflow=hidden;html=1;whiteSpace=wrap;" parent="1QTL2UDU8CIlQ4XkbXj3-329" vertex="1">
          <mxGeometry x="60" width="120" height="30" as="geometry">
            <mxRectangle width="120" height="30" as="alternateBounds" />
          </mxGeometry>
        </mxCell>
        <mxCell id="1QTL2UDU8CIlQ4XkbXj3-338" value="" style="shape=tableRow;horizontal=0;startSize=0;swimlaneHead=0;swimlaneBody=0;fillColor=none;collapsible=0;dropTarget=0;points=[[0,0.5],[1,0.5]];portConstraint=eastwest;top=0;left=0;right=0;bottom=1;html=1;" parent="1QTL2UDU8CIlQ4XkbXj3-325" vertex="1">
          <mxGeometry y="90" width="180" height="30" as="geometry" />
        </mxCell>
        <mxCell id="1QTL2UDU8CIlQ4XkbXj3-339" value="Fk4" style="shape=partialRectangle;connectable=0;fillColor=none;top=0;left=0;bottom=0;right=0;fontStyle=1;overflow=hidden;html=1;whiteSpace=wrap;" parent="1QTL2UDU8CIlQ4XkbXj3-338" vertex="1">
          <mxGeometry width="60" height="30" as="geometry">
            <mxRectangle width="60" height="30" as="alternateBounds" />
          </mxGeometry>
        </mxCell>
        <mxCell id="1QTL2UDU8CIlQ4XkbXj3-340" value="IdMedico" style="shape=partialRectangle;connectable=0;fillColor=none;top=0;left=0;bottom=0;right=0;align=left;spacingLeft=6;fontStyle=5;overflow=hidden;html=1;whiteSpace=wrap;" parent="1QTL2UDU8CIlQ4XkbXj3-338" vertex="1">
          <mxGeometry x="60" width="120" height="30" as="geometry">
            <mxRectangle width="120" height="30" as="alternateBounds" />
          </mxGeometry>
        </mxCell>
        <mxCell id="1QTL2UDU8CIlQ4XkbXj3-341" value="" style="shape=tableRow;horizontal=0;startSize=0;swimlaneHead=0;swimlaneBody=0;fillColor=none;collapsible=0;dropTarget=0;points=[[0,0.5],[1,0.5]];portConstraint=eastwest;top=0;left=0;right=0;bottom=0;html=1;" parent="1QTL2UDU8CIlQ4XkbXj3-325" vertex="1">
          <mxGeometry y="120" width="180" height="30" as="geometry" />
        </mxCell>
        <mxCell id="1QTL2UDU8CIlQ4XkbXj3-342" value="" style="shape=partialRectangle;connectable=0;fillColor=none;top=0;left=0;bottom=0;right=0;editable=1;overflow=hidden;html=1;whiteSpace=wrap;" parent="1QTL2UDU8CIlQ4XkbXj3-341" vertex="1">
          <mxGeometry width="60" height="30" as="geometry">
            <mxRectangle width="60" height="30" as="alternateBounds" />
          </mxGeometry>
        </mxCell>
        <mxCell id="1QTL2UDU8CIlQ4XkbXj3-343" value="DataConsulta" style="shape=partialRectangle;connectable=0;fillColor=none;top=0;left=0;bottom=0;right=0;align=left;spacingLeft=6;overflow=hidden;html=1;whiteSpace=wrap;" parent="1QTL2UDU8CIlQ4XkbXj3-341" vertex="1">
          <mxGeometry x="60" width="120" height="30" as="geometry">
            <mxRectangle width="120" height="30" as="alternateBounds" />
          </mxGeometry>
        </mxCell>
        <mxCell id="1QTL2UDU8CIlQ4XkbXj3-344" style="shape=tableRow;horizontal=0;startSize=0;swimlaneHead=0;swimlaneBody=0;fillColor=none;collapsible=0;dropTarget=0;points=[[0,0.5],[1,0.5]];portConstraint=eastwest;top=0;left=0;right=0;bottom=0;html=1;" parent="1QTL2UDU8CIlQ4XkbXj3-325" vertex="1">
          <mxGeometry y="150" width="180" height="30" as="geometry" />
        </mxCell>
        <mxCell id="1QTL2UDU8CIlQ4XkbXj3-345" style="shape=partialRectangle;connectable=0;fillColor=none;top=0;left=0;bottom=0;right=0;editable=1;overflow=hidden;html=1;whiteSpace=wrap;" parent="1QTL2UDU8CIlQ4XkbXj3-344" vertex="1">
          <mxGeometry width="60" height="30" as="geometry">
            <mxRectangle width="60" height="30" as="alternateBounds" />
          </mxGeometry>
        </mxCell>
        <mxCell id="1QTL2UDU8CIlQ4XkbXj3-346" value="HorarioConsulta" style="shape=partialRectangle;connectable=0;fillColor=none;top=0;left=0;bottom=0;right=0;align=left;spacingLeft=6;overflow=hidden;html=1;whiteSpace=wrap;" parent="1QTL2UDU8CIlQ4XkbXj3-344" vertex="1">
          <mxGeometry x="60" width="120" height="30" as="geometry">
            <mxRectangle width="120" height="30" as="alternateBounds" />
          </mxGeometry>
        </mxCell>
        <mxCell id="oid0VO_j-IJUv03uD-GG-3" value="" style="edgeStyle=entityRelationEdgeStyle;fontSize=12;html=1;endArrow=ERoneToMany;rounded=0;" parent="1" target="1QTL2UDU8CIlQ4XkbXj3-304" edge="1">
          <mxGeometry width="100" height="100" relative="1" as="geometry">
            <mxPoint x="1307" y="1169" as="sourcePoint" />
            <mxPoint x="1407" y="1040" as="targetPoint" />
          </mxGeometry>
        </mxCell>
        <mxCell id="oid0VO_j-IJUv03uD-GG-6" value="1" style="text;html=1;align=center;verticalAlign=middle;resizable=0;points=[];autosize=1;strokeColor=#82b366;fillColor=#d5e8d4;gradientColor=#97d077;" parent="1" vertex="1">
          <mxGeometry x="-300" y="805" width="30" height="30" as="geometry" />
        </mxCell>
        <mxCell id="oid0VO_j-IJUv03uD-GG-8" value="" style="edgeStyle=entityRelationEdgeStyle;fontSize=12;html=1;endArrow=ERmandOne;startArrow=ERmandOne;rounded=0;exitX=1;exitY=0.5;exitDx=0;exitDy=0;" parent="1" source="1QTL2UDU8CIlQ4XkbXj3-168" edge="1">
          <mxGeometry width="100" height="100" relative="1" as="geometry">
            <mxPoint x="937" y="818" as="sourcePoint" />
            <mxPoint x="1147" y="587" as="targetPoint" />
            <Array as="points">
              <mxPoint x="1117" y="630" />
            </Array>
          </mxGeometry>
        </mxCell>
        <mxCell id="oid0VO_j-IJUv03uD-GG-9" value="1" style="text;html=1;align=center;verticalAlign=middle;resizable=0;points=[];autosize=1;strokeColor=#82b366;fillColor=#d5e8d4;gradientColor=#97d077;" parent="1" vertex="1">
          <mxGeometry x="-245" y="838" width="30" height="30" as="geometry" />
        </mxCell>
        <mxCell id="oid0VO_j-IJUv03uD-GG-10" value="N" style="text;html=1;align=center;verticalAlign=middle;resizable=0;points=[];autosize=1;strokeColor=#6c8ebf;fillColor=#dae8fc;gradientColor=#7ea6e0;" parent="1" vertex="1">
          <mxGeometry x="60" y="1068" width="30" height="30" as="geometry" />
        </mxCell>
        <mxCell id="oid0VO_j-IJUv03uD-GG-12" value="1" style="text;html=1;align=center;verticalAlign=middle;resizable=0;points=[];autosize=1;strokeColor=#82b366;fillColor=#d5e8d4;gradientColor=#97d077;" parent="1" vertex="1">
          <mxGeometry x="175" y="878" width="30" height="30" as="geometry" />
        </mxCell>
        <mxCell id="oid0VO_j-IJUv03uD-GG-13" value="N" style="text;html=1;align=center;verticalAlign=middle;resizable=0;points=[];autosize=1;strokeColor=#6c8ebf;fillColor=#dae8fc;gradientColor=#7ea6e0;" parent="1" vertex="1">
          <mxGeometry x="175" y="1038" width="30" height="30" as="geometry" />
        </mxCell>
        <mxCell id="oid0VO_j-IJUv03uD-GG-14" value="1" style="text;html=1;align=center;verticalAlign=middle;resizable=0;points=[];autosize=1;strokeColor=#82b366;fillColor=#d5e8d4;gradientColor=#97d077;" parent="1" vertex="1">
          <mxGeometry x="55" y="788" width="30" height="30" as="geometry" />
        </mxCell>
        <mxCell id="oid0VO_j-IJUv03uD-GG-15" value="" style="edgeStyle=entityRelationEdgeStyle;fontSize=12;html=1;endArrow=ERmandOne;startArrow=ERmandOne;rounded=0;entryX=1;entryY=0.5;entryDx=0;entryDy=0;exitX=0;exitY=0.5;exitDx=0;exitDy=0;" parent="1" source="1QTL2UDU8CIlQ4XkbXj3-301" target="1QTL2UDU8CIlQ4XkbXj3-168" edge="1">
          <mxGeometry width="100" height="100" relative="1" as="geometry">
            <mxPoint x="1077" y="802" as="sourcePoint" />
            <mxPoint x="1117" y="672" as="targetPoint" />
            <Array as="points">
              <mxPoint x="1427" y="767" />
              <mxPoint x="1447" y="757" />
              <mxPoint x="1097" y="800" />
              <mxPoint x="1067" y="732" />
              <mxPoint x="1097" y="742" />
            </Array>
          </mxGeometry>
        </mxCell>
        <mxCell id="oid0VO_j-IJUv03uD-GG-17" value="" style="edgeStyle=entityRelationEdgeStyle;fontSize=12;html=1;endArrow=ERoneToMany;rounded=0;entryX=0;entryY=0.5;entryDx=0;entryDy=0;exitX=1;exitY=0.5;exitDx=0;exitDy=0;" parent="1" source="1QTL2UDU8CIlQ4XkbXj3-245" target="1QTL2UDU8CIlQ4XkbXj3-329" edge="1">
          <mxGeometry width="100" height="100" relative="1" as="geometry">
            <mxPoint x="1347" y="870" as="sourcePoint" />
            <mxPoint x="1447" y="770" as="targetPoint" />
          </mxGeometry>
        </mxCell>
        <mxCell id="oid0VO_j-IJUv03uD-GG-18" value="" style="edgeStyle=entityRelationEdgeStyle;fontSize=12;html=1;endArrow=ERoneToMany;rounded=0;entryX=0;entryY=0.5;entryDx=0;entryDy=0;exitX=1;exitY=0.5;exitDx=0;exitDy=0;" parent="1" source="1QTL2UDU8CIlQ4XkbXj3-298" target="1QTL2UDU8CIlQ4XkbXj3-338" edge="1">
          <mxGeometry width="100" height="100" relative="1" as="geometry">
            <mxPoint x="1337" y="1050" as="sourcePoint" />
            <mxPoint x="1437" y="950" as="targetPoint" />
          </mxGeometry>
        </mxCell>
        <mxCell id="oid0VO_j-IJUv03uD-GG-26" value="1" style="text;html=1;align=center;verticalAlign=middle;resizable=0;points=[];autosize=1;strokeColor=#82b366;fillColor=#d5e8d4;gradientColor=#97d077;" parent="1" vertex="1">
          <mxGeometry x="190" y="1139" width="30" height="30" as="geometry" />
        </mxCell>
        <mxCell id="oid0VO_j-IJUv03uD-GG-27" value="N" style="text;html=1;align=center;verticalAlign=middle;resizable=0;points=[];autosize=1;strokeColor=#6c8ebf;fillColor=#dae8fc;gradientColor=#7ea6e0;" parent="1" vertex="1">
          <mxGeometry x="-235" y="1168" width="30" height="30" as="geometry" />
        </mxCell>
        <mxCell id="oid0VO_j-IJUv03uD-GG-31" value="" style="edgeStyle=entityRelationEdgeStyle;fontSize=12;html=1;endArrow=ERoneToMany;rounded=0;entryX=1;entryY=0.5;entryDx=0;entryDy=0;" parent="1" target="1QTL2UDU8CIlQ4XkbXj3-279" edge="1">
          <mxGeometry width="100" height="100" relative="1" as="geometry">
            <mxPoint x="1597" y="790" as="sourcePoint" />
            <mxPoint x="1727" y="710" as="targetPoint" />
          </mxGeometry>
        </mxCell>
      </root>
    </mxGraphModel>
  </diagram>
</mxfile>
